<svg xmlns="http://www.w3.org/2000/svg" xmlns:xlink="http://www.w3.org/1999/xlink" viewBox="0 0 579.71 579.71"><defs><style>.cls-1{fill:none;}.cls-2{fill:#000004;}.cls-3{clip-path:url(#clip-path);}.cls-4{fill:url(#linear-gradient);}.cls-5{clip-path:url(#clip-path-2);}.cls-6{fill:url(#linear-gradient-2);}.cls-7{clip-path:url(#clip-path-3);}.cls-8{fill:url(#linear-gradient-3);}.cls-9{clip-path:url(#clip-path-4);}.cls-10{fill:url(#linear-gradient-4);}.cls-11{clip-path:url(#clip-path-5);}.cls-12{fill:url(#linear-gradient-5);}.cls-13{clip-path:url(#clip-path-6);}.cls-14{fill:url(#linear-gradient-6);}.cls-15{clip-path:url(#clip-path-7);}.cls-16{fill:url(#linear-gradient-7);}.cls-17{clip-path:url(#clip-path-8);}.cls-18{fill:url(#linear-gradient-8);}.cls-19{clip-path:url(#clip-path-9);}.cls-20{fill:url(#linear-gradient-9);}.cls-21{clip-path:url(#clip-path-10);}.cls-22{fill:url(#linear-gradient-10);}.cls-23{clip-path:url(#clip-path-11);}.cls-24{fill:url(#linear-gradient-11);}.cls-25{fill:#65af52;}.cls-26{fill:#eee;}.cls-27{fill:#a9d161;}.cls-28{fill:silver;}.cls-29{font-size:8.01px;font-family:Montserrat-Bold, Montserrat;font-weight:700;}.cls-30{letter-spacing:0em;}.cls-31{letter-spacing:0em;}</style><clipPath id="clip-path" transform="translate(185.06 78.37)"><path class="cls-1" d="M.79,31.16V391.84a27.92,27.92,0,0,0,.4,4.69l.12.65a28.51,28.51,0,0,0,.82,3.18l.21.61a27,27,0,0,0,1.94,4.32l.32.55c.3.51.61,1,.94,1.49.11.16.21.31.33.47a26.37,26.37,0,0,0,2,2.49l.36.4.29.31.45.46.47.45.4.38c.42.38.86.75,1.3,1.11l.45.36a27.76,27.76,0,0,0,2.63,1.8l.54.33c.4.23.81.45,1.22.66l.49.24a27.88,27.88,0,0,0,7.42,2.38c.43.07.86.14,1.3.19h0l.67.07A25.12,25.12,0,0,1,3.44,394.49v-366a25.12,25.12,0,0,1,23.78-25A27.76,27.76,0,0,0,.79,31.16"/></clipPath><linearGradient id="linear-gradient" x1="-1223.55" y1="4137.42" x2="-1222.55" y2="4137.42" gradientTransform="matrix(3.07, 0, 0, -3.07, 3944.34, 12999.09)" gradientUnits="userSpaceOnUse"><stop offset="0" stop-color="#666"/><stop offset="1"/></linearGradient><clipPath id="clip-path-2" transform="translate(185.06 78.37)"><path class="cls-1" d="M206.17,28.52v366a25.12,25.12,0,0,1-22.42,24.94l.67-.07h0c.44-.05.87-.12,1.3-.19l.7-.13.66-.14c.62-.13,1.24-.29,1.85-.47l.48-.15c.46-.14.92-.3,1.37-.47l.6-.23.6-.25.49-.22c.62-.28,1.23-.58,1.83-.91l.55-.31c.37-.21.74-.43,1.1-.66l.53-.35c.53-.35,1-.72,1.55-1.12l.46-.35c.34-.29.68-.57,1-.87l.44-.39c.48-.45.94-.91,1.38-1.39.3-.3.58-.62.85-.94s.28-.33.41-.5.27-.33.4-.49l.38-.51c.13-.17.26-.34.38-.52l.32-.46c.33-.49.65-1,1-1.51l.32-.55.28-.53c.14-.27.28-.53.41-.8l.27-.58c.21-.44.4-.89.58-1.34.06-.14.12-.3.17-.45s.15-.4.22-.61.15-.41.21-.61a27.63,27.63,0,0,0,1.34-8.52V31.16A27.76,27.76,0,0,0,183.08,3.51a25.12,25.12,0,0,1,23.09,25"/></clipPath><linearGradient id="linear-gradient-2" x1="-1219.49" y1="4139.53" x2="-1218.49" y2="4139.53" gradientTransform="matrix(3.05, 0, 0, -3.05, 4104.79, 12895.22)" gradientUnits="userSpaceOnUse"><stop offset="0"/><stop offset="1" stop-color="#666"/></linearGradient><clipPath id="clip-path-3" transform="translate(185.06 78.37)"><path class="cls-1" d="M207.48,400.36c-.06.2-.13.41-.21.61s-.14.41-.22.61-.11.31-.17.45c-.18.45-.37.9-.58,1.34-.08.19-.18.39-.27.58s-.27.53-.41.8l-.28.53-.32.55c-.3.51-.62,1-1,1.51l-.32.46c-.12.18-.25.35-.38.52l-.38.51c-.13.16-.26.33-.4.49s-.27.33-.41.5-.55.64-.85.94c-.44.48-.9.94-1.38,1.39l-.44.39c-.33.3-.67.58-1,.87-.15.12-.3.24-.46.35-.5.4-1,.77-1.55,1.12l-.53.35c-.36.23-.73.45-1.1.66l-.55.31c-.6.33-1.21.63-1.83.91l-.49.22-.6.25-.6.23c-.45.17-.91.33-1.37.47l-.48.15c-.61.18-1.23.34-1.85.47l-.66.14-.7.13c-.42.07-.86.14-1.3.19h0l-.26,0-1.08.1-.69,0q-.64,0-1.29,0H28.52c-.44,0-.87,0-1.3,0l-.69,0-1.34-.13h0c-.44-.05-.87-.12-1.3-.19a27.88,27.88,0,0,1-7.42-2.38l-.49-.24c-.41-.21-.82-.43-1.22-.66l-.54-.33a27.76,27.76,0,0,1-2.63-1.8l-.45-.36c-.44-.36-.88-.73-1.3-1.11l-.4-.38L9,411.46,8.5,411l-.29-.31-.36-.4a26.37,26.37,0,0,1-2-2.49c-.12-.16-.22-.31-.33-.47-.33-.48-.64-1-.94-1.49l-.32-.55A27,27,0,0,1,2.34,401l-.21-.61a28.51,28.51,0,0,1-.82-3.18l-.12-.65a27.92,27.92,0,0,1-.4-4.69v2.65a27.76,27.76,0,0,0,27.73,27.72H181.1a27.76,27.76,0,0,0,27.72-27.72v-2.65a27.63,27.63,0,0,1-1.34,8.52"/></clipPath><linearGradient id="linear-gradient-3" x1="-1656.94" y1="3837.81" x2="-1655.94" y2="3837.81" gradientTransform="matrix(0, -24.32, -24.32, 0, 93631.97, -39799.05)" gradientUnits="userSpaceOnUse"><stop offset="0" stop-color="#959595"/><stop offset="1"/></linearGradient><clipPath id="clip-path-4" transform="translate(185.06 78.37)"><path class="cls-1" d="M28.52.79h-.71l-.71,0c-.39,0-.78.05-1.16.09s-1,.1-1.44.17l-.66.1c-.44.08-.88.16-1.32.26l-.65.15-.65.17L20.59,2l-.68.21-.58.2-.6.22-.05,0-.58.23c-.41.17-.81.34-1.2.52l-.6.29-.58.29-.57.31-.57.32-1.1.68c-.37.24-.72.48-1.07.73s-.7.51-1,.78l-.5.41c-.34.27-.66.56-1,.84s-.63.59-.94.9l-.84.87c-.17.18-.32.36-.48.54l-.42.49A28.82,28.82,0,0,0,4.6,14.51c-.11.19-.22.38-.32.57s-.19.33-.27.49c-.18.33-.34.65-.5,1s-.18.38-.26.57-.12.25-.18.39L2.86,18c-.07.15-.12.29-.18.44s-.13.35-.2.53-.15.43-.23.64-.11.36-.17.53c-.18.56-.34,1.12-.48,1.7,0,.19-.09.38-.13.58-.09.38-.17.78-.24,1.17,0,.23-.08.46-.11.69s-.05.29-.07.43,0,.24,0,.36-.06.45-.08.68c-.05.44-.08.88-.1,1.32,0,.2,0,.4,0,.61s0,.54,0,.82v2.64A27.76,27.76,0,0,1,27.22,3.47h0q.64,0,1.29,0H181.1c.43,0,.86,0,1.28,0h0l.69,0,.67.06a27.75,27.75,0,0,1,25.07,27.59V28.52c0-.27,0-.54,0-.81q0-.64-.06-1.26c0-.23,0-.46-.06-.69s-.05-.45-.07-.67l-.09-.67c0-.14,0-.28-.07-.41a26.24,26.24,0,0,0-.89-3.75c-.06-.21-.13-.42-.2-.63-.19-.56-.4-1.12-.63-1.67l-.18-.44c-.25-.55-.5-1.09-.78-1.63-.07-.16-.16-.31-.24-.46-.17-.33-.35-.64-.53-.95l-.3-.49c-.2-.33-.41-.65-.62-1l-.38-.55c-.26-.36-.52-.72-.8-1.07l-.41-.51A28.41,28.41,0,0,0,200,8.25l-.67-.61c-.51-.45-1-.87-1.59-1.29-.15-.11-.3-.23-.46-.33a26.13,26.13,0,0,0-4-2.39l-.58-.28-.6-.27-.55-.23c-.25-.11-.51-.21-.76-.3l-1.15-.4L189.14,2l-.77-.23-.56-.14-.13,0-.59-.13-.65-.14h0l-.66-.12-.67-.1c-.22,0-.44-.07-.67-.09l-.67-.08h0c-.44,0-.88-.07-1.33-.09l-.6,0H28.52Z"/></clipPath><linearGradient id="linear-gradient-4" x1="-1663" y1="3849.47" x2="-1662" y2="3849.47" gradientTransform="matrix(0, -30.37, -30.37, 0, 117188.5, -50398.69)" gradientUnits="userSpaceOnUse"><stop offset="0"/><stop offset="1" stop-color="gray"/></linearGradient><clipPath id="clip-path-5" transform="translate(185.06 78.37)"><path class="cls-1" d="M199.81,23.73v4.12c0,.26,0,.52,0,.78v366c0,.25,0,.51,0,.75v4.22a23.8,23.8,0,0,1-3.15,11.87,23.13,23.13,0,0,0,3-3.31c.31-.43.61-.86.89-1.31.19-.29.37-.59.55-.9a23.46,23.46,0,0,0,2-4.74,22.91,22.91,0,0,0,1-6.55v-366a22.89,22.89,0,0,0-7.4-16.88,23.87,23.87,0,0,1,3.16,12"/></clipPath><linearGradient id="linear-gradient-5" x1="-1494.7" y1="3996.52" x2="-1493.7" y2="3996.52" gradientTransform="matrix(7.39, 0, 0, -7.39, 11434.55, 29842.9)" gradientUnits="userSpaceOnUse"><stop offset="0" stop-color="#f0f0f0"/><stop offset="0.01" stop-color="#ededed"/><stop offset="0.14" stop-color="#b4b4b4"/><stop offset="0.27" stop-color="#858585"/><stop offset="0.4" stop-color="#606060"/><stop offset="0.51" stop-color="#464646"/><stop offset="0.62" stop-color="#363636"/><stop offset="0.7" stop-color="#303030"/><stop offset="1" stop-color="#303030"/></linearGradient><clipPath id="clip-path-6" transform="translate(185.06 78.37)"><path class="cls-1" d="M9.8,399.54A23.9,23.9,0,0,0,13,411.45a22.91,22.91,0,0,0,12.85,5.95l.87.09.63,0q.6,0,1.2,0H181.11c.4,0,.79,0,1.18,0,.22,0,.44,0,.65,0a22.83,22.83,0,0,0,13.72-6.05,23.8,23.8,0,0,0,3.15-11.87v-4.22a18.79,18.79,0,0,1-17.19,17.91c-.14,0-.28,0-.43,0h-.12l-1,0H28.53c-.33,0-.66,0-1,0h-.12l-.39,0a18.56,18.56,0,0,1-10.65-4.44A18.76,18.76,0,0,1,9.8,394.6Z"/></clipPath><linearGradient id="linear-gradient-6" x1="-1679.88" y1="3900.29" x2="-1678.88" y2="3900.29" gradientTransform="matrix(190.01, 0, 0, -190.01, 319393.01, 741586.17)" gradientUnits="userSpaceOnUse"><stop offset="0" stop-color="#131313"/><stop offset="0.02" stop-color="#1a1a1a"/><stop offset="0.13" stop-color="#454545"/><stop offset="0.24" stop-color="#666"/><stop offset="0.35" stop-color="#7e7e7e"/><stop offset="0.44" stop-color="#8d8d8d"/><stop offset="0.52" stop-color="#929292"/><stop offset="0.59" stop-color="#8b8b8b"/><stop offset="0.69" stop-color="#767676"/><stop offset="0.81" stop-color="#545454"/><stop offset="0.95" stop-color="#252525"/><stop offset="1" stop-color="#131313"/></linearGradient><clipPath id="clip-path-7" transform="translate(185.06 78.37)"><path class="cls-1" d="M28.53,5.67c-.4,0-.79,0-1.18,0h-.06c-.5,0-1,.07-1.47.13A22.86,22.86,0,0,0,13,11.74a24,24,0,0,0-3.16,12v4.94A18.73,18.73,0,0,1,27.41,9.94h.1l.14,0,.88,0H181.11l.8,0h.19a18.7,18.7,0,0,1,17.71,17.92V23.73a23.87,23.87,0,0,0-3.16-12,22.89,22.89,0,0,1,7.4,16.88l0,0A23,23,0,0,0,182.33,5.7h0c-.39,0-.78,0-1.18,0Z"/></clipPath><linearGradient id="linear-gradient-7" x1="-1680.05" y1="3900.2" x2="-1679.05" y2="3900.2" gradientTransform="matrix(194.26, 0, 0, -194.26, 326565.29, 757759.01)" xlink:href="#linear-gradient-6"/><clipPath id="clip-path-8" transform="translate(185.06 78.37)"><path class="cls-1" d="M5.56,28.52v366A23,23,0,0,0,13,411.33a23.84,23.84,0,0,1-3.18-11.91V23.58A24,24,0,0,1,13,11.63,22.94,22.94,0,0,0,5.56,28.52"/></clipPath><linearGradient id="linear-gradient-8" x1="-1362.62" y1="4065.16" x2="-1361.62" y2="4065.16" gradientTransform="matrix(4.39, 0, 0, -4.39, 6168.6, 18124.26)" gradientUnits="userSpaceOnUse"><stop offset="0" stop-color="#c8c8c8"/><stop offset="0.23" stop-color="#9b9b9b"/><stop offset="0.6" stop-color="#585858"/><stop offset="0.86" stop-color="#2f2f2f"/><stop offset="1" stop-color="#1f1f1f"/></linearGradient><clipPath id="clip-path-9" transform="translate(185.06 78.37)"><path class="cls-1" d="M199.81,23.73V399.57a23.8,23.8,0,0,1-3.15,11.87l0,0a22,22,0,0,0,3-3.35c.32-.43.62-.86.89-1.31.19-.29.37-.59.55-.9a23.46,23.46,0,0,0,2-4.74,22.91,22.91,0,0,0,1-6.55v-366a22.89,22.89,0,0,0-7.4-16.88,23.87,23.87,0,0,1,3.16,12"/></clipPath><linearGradient id="linear-gradient-9" x1="-1495.26" y1="3996.23" x2="-1494.26" y2="3996.23" gradientTransform="matrix(7.42, 0, 0, -7.42, 11470.31, 29925.55)" gradientUnits="userSpaceOnUse"><stop offset="0" stop-color="#1f1f1f"/><stop offset="0.14" stop-color="#2f2f2f"/><stop offset="0.4" stop-color="#585858"/><stop offset="0.77" stop-color="#9b9b9b"/><stop offset="1" stop-color="#c8c8c8"/></linearGradient><clipPath id="clip-path-10" transform="translate(185.06 78.37)"><rect class="cls-1" x="91.99" y="14.88" width="24.35" height="2.56" rx="0.88"/></clipPath><linearGradient id="linear-gradient-10" x1="-1628.87" y1="3926.8" x2="-1627.87" y2="3926.8" gradientTransform="matrix(24.35, 0, 0, -24.35, 39938.3, 95708.1)" gradientUnits="userSpaceOnUse"><stop offset="0" stop-color="#303030"/><stop offset="0.12" stop-color="#242424"/><stop offset="0.3" stop-color="#171717"/><stop offset="0.48" stop-color="#131313"/><stop offset="0.78" stop-color="#151515"/><stop offset="0.89" stop-color="#1c1c1c"/><stop offset="0.96" stop-color="#272727"/><stop offset="1" stop-color="#303030"/></linearGradient><clipPath id="clip-path-11" transform="translate(185.06 78.37)"><path class="cls-1" d="M159.07,13.21a2.55,2.55,0,0,0-2.4,2.28c0,.08,0,.17,0,.26v0a12.17,12.17,0,0,1-12.15,11.59H65.09A12.17,12.17,0,0,1,52.94,15.78v0c0-.09,0-.18,0-.26a2.54,2.54,0,0,0-2.4-2.28H27.84l-.21,0h-.14A15.28,15.28,0,0,0,13.22,28.49v366a15.36,15.36,0,0,0,14.07,15.24h.43l.79,0H181.09l.8,0h.42a15.36,15.36,0,0,0,14.07-15.24v-366a15.28,15.28,0,0,0-14.27-15.25H182l-.21,0H159.07Z"/></clipPath><linearGradient id="linear-gradient-11" x1="-1686.16" y1="3900.25" x2="-1685.16" y2="3900.25" gradientTransform="matrix(0, 397.23, 397.23, 0, -1549203.59, 669813.51)" gradientUnits="userSpaceOnUse"><stop offset="0" stop-color="#f1f2f3"/><stop offset="0.49" stop-color="#ededee"/><stop offset="1" stop-color="#e2e2e2"/></linearGradient></defs><g id="Layer_2" data-name="Layer 2"><g id="Layer_1-2" data-name="Layer 1"><path class="cls-2" d="M181.1,0H28.51A28.52,28.52,0,0,0,0,28.51v366A28.52,28.52,0,0,0,28.51,423H181.1a28.51,28.51,0,0,0,28.51-28.51v-366A28.51,28.51,0,0,0,181.1,0m27.72,391.84a27.63,27.63,0,0,1-1.34,8.52c-.06.2-.13.41-.21.61s-.14.41-.22.61-.11.31-.17.45c-.18.45-.37.9-.58,1.34L206,404c-.13.27-.27.54-.41.8l-.28.53-.32.55c-.3.51-.62,1-1,1.51l-.32.46c-.12.18-.25.35-.38.52s-.25.34-.38.5-.26.34-.4.5-.27.33-.41.49c-.27.33-.56.65-.85.95-.44.48-.9.94-1.38,1.39l-.44.39c-.33.3-.67.58-1,.87l-.46.35c-.5.4-1,.77-1.55,1.12l-.53.35c-.36.23-.73.45-1.1.66l-.55.31c-.6.33-1.21.63-1.83.91l-.49.22c-.2.09-.4.16-.6.24l-.6.24c-.45.17-.91.33-1.37.47l-.48.15c-.61.18-1.23.34-1.85.47l-.66.14-.7.13c-.42.07-.86.14-1.3.19h0l-.26,0h-.25l1.16-.16.58-.1.57-.11q.85-.18,1.68-.42l.56-.16q.54-.16,1.08-.36c.54-.2,1.07-.41,1.59-.64.17-.06.35-.15.52-.23l.51-.24,1-.53,1-.56.86-.55.08-.06c.47-.32.92-.65,1.37-1l.44-.35c.41-.34.81-.68,1.2-1a25.21,25.21,0,0,0,2.68-2.89l.34-.45a25.08,25.08,0,0,0,3-5.05l.36-.87a24.73,24.73,0,0,0,1.29-4.45c.06-.3.11-.61.16-.92a26.31,26.31,0,0,0,.28-3.79v-366A25.12,25.12,0,0,0,183.75,3.57l-.67-.06-.69,0h0c-.42,0-.85,0-1.28,0H28.52q-.64,0-1.29,0h0a25.12,25.12,0,0,0-23.78,25v366A25.12,25.12,0,0,0,25.7,419.41l-.51-.05h0c-.44-.05-.87-.12-1.3-.19a27.88,27.88,0,0,1-7.42-2.38l-.49-.24c-.41-.21-.82-.43-1.22-.66l-.54-.33a27.76,27.76,0,0,1-2.63-1.8l-.45-.36c-.44-.36-.88-.73-1.3-1.11l-.4-.38L9,411.46,8.5,411a4.11,4.11,0,0,1-.29-.3l-.36-.4a28.19,28.19,0,0,1-2-2.49c-.11-.15-.21-.31-.32-.47-.33-.49-.64-1-.94-1.49l-.32-.55A27,27,0,0,1,2.34,401l-.21-.61a28.51,28.51,0,0,1-.82-3.18l-.12-.65a27.92,27.92,0,0,1-.4-4.69V28.51c0-.27,0-.54,0-.81s0-.41,0-.61c0-.44.05-.88.1-1.32,0-.23,0-.46.08-.68s0-.24,0-.36,0-.28.07-.43.07-.46.11-.69c.07-.39.15-.79.24-1.17,0-.2.09-.39.13-.58.14-.58.3-1.14.48-1.7l.18-.53c.07-.21.14-.43.22-.64s.13-.36.2-.53.11-.29.18-.44l.21-.52.18-.38c.08-.19.17-.38.26-.57s.32-.65.5-1c.08-.16.17-.33.27-.49s.21-.38.32-.57A28.82,28.82,0,0,1,7.21,10.8l.42-.49.48-.54c.28-.3.55-.59.84-.87s.62-.61.94-.9.64-.57,1-.84l.5-.41c.34-.27.68-.53,1-.78s.7-.49,1.07-.73l1.1-.68.57-.32.57-.31.58-.29.6-.29c.39-.18.79-.35,1.2-.52l.58-.23.05,0,.6-.22.58-.2L20.59,2l.63-.18.65-.17.65-.15c.44-.1.88-.18,1.32-.26l.66-.1C25,1,25.46,1,25.94.92S26.71.85,27.1.83l.71,0h154l.6,0c.45,0,.89.05,1.33.09h0l.67.07.67.1.67.1.66.12h0l.65.14.59.13.13,0,.56.15.77.22.52.17,1.15.4c.25.09.51.19.76.3l.55.23.6.27.58.28a26.13,26.13,0,0,1,4,2.39c.16.1.31.22.46.33q.83.62,1.59,1.29l.67.61a28.41,28.41,0,0,1,2.5,2.65l.41.51c.28.35.54.71.79,1.07.14.18.26.36.39.55s.42.63.62,1l.3.5c.18.31.36.62.53.95.08.15.17.3.24.46.28.54.53,1.08.78,1.63l.18.44c.23.55.44,1.11.63,1.67.07.21.14.42.2.63a26.42,26.42,0,0,1,.89,3.74c0,.14.05.27.07.42l.09.66c0,.23,0,.45.07.68s0,.46.06.69q0,.61.06,1.26c0,.26,0,.53,0,.8Z" transform="translate(185.06 78.37)"/><g class="cls-3"><rect class="cls-4" x="185.85" y="81.84" width="26.42" height="415.95"/></g><g class="cls-5"><rect class="cls-6" x="368.13" y="81.89" width="25.74" height="415.91"/></g><g class="cls-7"><rect class="cls-8" x="185.85" y="470.21" width="208.02" height="30.37"/></g><g class="cls-9"><rect class="cls-10" x="185.85" y="79.17" width="208.02" height="30.37"/></g><path d="M182.39,3.47h0c-.42,0-.85,0-1.28,0H28.52q-.64,0-1.29,0h0A25.12,25.12,0,0,0,3.44,28.52v366a25.12,25.12,0,0,0,23.09,25l.69,0c.43,0,.86,0,1.3,0H181.1q.65,0,1.29,0l.69,0a25.12,25.12,0,0,0,23.09-25v-366a25.11,25.11,0,0,0-23.78-25m21.67,391a23.06,23.06,0,0,1-21.13,22.88c-.21,0-.43,0-.65,0-.39,0-.78,0-1.18,0H28.52l-1.2,0c-.21,0-.43,0-.63,0A23.06,23.06,0,0,1,5.56,394.49v-366A23,23,0,0,1,27.28,5.59h.06l1.18,0H181.1l1.18,0h0a23,23,0,0,1,21.74,22.93Z" transform="translate(185.06 78.37)"/><g class="cls-11"><rect class="cls-12" x="381.71" y="90.15" width="7.39" height="399.66"/></g><path d="M182.2,7.7h-.09c-.33,0-.67,0-1,0H28.52c-.35,0-.69,0-1,0h-.16A20.84,20.84,0,0,0,7.67,28.52v366a20.93,20.93,0,0,0,19.2,20.77,4,4,0,0,0,.5,0h.06c.36,0,.73,0,1.09,0H181.1c.36,0,.72,0,1.07,0h.06a4.58,4.58,0,0,0,.53,0,20.92,20.92,0,0,0,19.18-20.77v-366A20.84,20.84,0,0,0,182.2,7.7m14.18,386.79a15.34,15.34,0,0,1-14,15.23l-.23,0h-.23l-.77,0H28.52l-.79,0h-.22l-.21,0a15.35,15.35,0,0,1-14.07-15.23v-366A15.28,15.28,0,0,1,27.5,13.27h.14l.21,0,.67,0H181.1l.68,0h.13a15.27,15.27,0,0,1,14.47,15.27Z" transform="translate(185.06 78.37)"/><path d="M156.68,13.23v2a12.16,12.16,0,0,1-12.16,12.16H65.1A12.16,12.16,0,0,1,52.93,15.23v-2Z" transform="translate(185.06 78.37)"/><path d="M156.68,13.24v2A12.17,12.17,0,0,1,144.52,27.4H65.1A12.17,12.17,0,0,1,52.93,15.23v-2Z" transform="translate(185.06 78.37)"/><g class="cls-13"><rect class="cls-14" x="194.86" y="472.97" width="190.01" height="22.96"/></g><g class="cls-15"><rect class="cls-16" x="194.86" y="84.04" width="194.26" height="22.99"/></g><g class="cls-17"><rect class="cls-18" x="190.61" y="90" width="7.42" height="399.7"/></g><g class="cls-19"><rect class="cls-20" x="381.69" y="90.15" width="7.42" height="399.7"/></g><g class="cls-21"><rect class="cls-22" x="277.05" y="93.25" width="24.35" height="2.56"/></g><g class="cls-23"><rect class="cls-24" x="-100.16" y="6.53" width="409.92" height="409.92" transform="translate(66.21 214.42) rotate(-45)"/></g><path class="cls-25" d="M30.92,268.35l-17-.28c-.09-3.82-.26-7.63-.27-11.45q0-71.44,0-142.89c0-2.1.15-4.2.22-6.3H195.51l-.06,160.5-1.19.33a61.67,61.67,0,0,0-17.27.1H175.1c-.7-2.05.42-3.75,1.1-5.5,4.7-12.07,5.73-24.63,4.18-37.3-5.09-41.47-43.26-70.36-86.48-65.76C54.16,164,23.77,201.38,27,241.54c.74,9.29,4.25,17.79,5.82,26.79l-1.85,0M78.58,131.12l-.93-1L77,129.5c-.11.14-.33.28-.34.43-.22,3-.43,5.94-.65,9.14,2.3-1.14.78-3.89,2.93-4.89,1,2.3.88,6.32,4.22,4.86,1.8-.8-.7-4.52.4-7.25.49-1.19-2.71-3.44-4.94-.67m-6.74-2.84c-4.06,4.13-4.19,3.7-10.67,3.25-3.07-.21-6.29-.11-9.44-.29-1.64-.09-2.86.45-2,2.29s-.35,4.17,1.73,5.86a9.69,9.69,0,0,0,1.09-1.53c.54-1.28-.57-3.39,1.66-3.76,2.41-.41,1.88,1.86,2.43,3.1.92,2.11,3.06,3.19,4.64,2.28,2.73-1.57,4.9-.28,7.39-.08,1.14.09,4.73,1.68,4.22-1.65-.48-3.09.65-6.44-1.09-9.47m43.72,5.58c2,1.08,1.49,2.34,1.69,3.39.43,2.22,1.62,2.87,2.6.58a4.73,4.73,0,0,0-1.4-5.69c-2-1.39-5.86-1.08-6.25.08-1.47,4.31-2.33.64-3.31,0a4.37,4.37,0,0,0-4.84-.1,4,4,0,0,0,1.07,7.16c3,1.07,5.86-2.56,9-.44.45-1.56.91-3.12,1.47-5M89.86,129c0,2.83-.07,5.66.06,8.48a2.29,2.29,0,0,0,1.22,1.68,1.28,1.28,0,0,0,1.64-1.14c.49-4.67,3.24-1.14,4.81-1.16.74,0,.75,2.92,2.66,1.92,1.33-.71.91-2.43.8-3.69-.18-2.13.57-4.46-1.12-7-3.06,4.67-6.11,4.13-10.07.87m61.7,4.51c-.88-1.41,2-8.65-4.77-3a1.66,1.66,0,0,1-1.12.18c-5.64-.57-4.22,3.28-3.95,6.35.08.95.49,2,1.55,2.14s1.47-.91,1.6-1.92c.16-1.23-.33-3.07,1.64-3.07,2.37,0,1.53,2.14,1.88,3.47.26,1,.73,1.93,1.88,1.55a2.44,2.44,0,0,0,1.24-1.66,27.59,27.59,0,0,0,.05-4.08m18.54,3.52c-.31-1.87,1.12-4.85-2.47-5.7a3.87,3.87,0,0,0-4.44,1.73c-1.79,2.81-1,5,1.83,6.54.59.33,1.63.62.11,1.09-.9.28-2.13.42-1.25,1.65a3.21,3.21,0,0,0,2.5.83c3.69-.27,3.83-3,3.72-6.14m-122-5.24c-1-3.22-3.15-4.17-6-3.69-3,.52-4.58,2.74-4.69,5.63a5.29,5.29,0,0,0,4,5.58c3.07.85,5.51.05,6.62-3.3-1.69-1.3-2.61.39-3.81.53-3.16.38-5-2.75-3.08-5.08,2.35-2.8,4.3,1.27,7,.33m92.25,3.67c0-2.56-1.39-3.94-3.87-4s-4.13,1.16-4.2,3.7c-.09,2.78,1.68,4.3,4.28,4.35s3.76-1.55,3.79-4.07m16.75-1.29c3,.28-.15,4.68,3.41,4.9.62-2.54,1.59-5.29-1-7.07-1.67-1.14-4.7-1.24-5.79.28a5.33,5.33,0,0,0,.59,6.9c2.44-1.13.82-4,2.84-5m-26-1.31c-1.26-1.54-1.92-3.33-3.51-3.12a2.45,2.45,0,0,0-2,3.35c1.09,2.12-.06,6.56,3.6,6s-3.68-5.35,1.93-6.23" transform="translate(185.06 78.37)"/><path class="cls-26" d="M175.1,268.35H177c-3.49,13.5-12.79,22.84-23.09,31.16a75.61,75.61,0,0,1-44.14,16.91c-19.64,1-38.41-3.48-54.46-16-8.49-6.64-15.92-14.17-21.51-23.48-1.64-2.74-2-5.68-2.86-8.57h1.84c1.63.47,2.32,1.8,3.1,3.16,15.56,27.18,38.74,41.26,70.35,40.72,24.35-.41,43.39-11.14,58.76-29.58,3.79-4.54,5.29-10.58,10.12-14.29" transform="translate(185.06 78.37)"/><path class="cls-27" d="M149.38,206.4c-3.59-1.4-5.14-5-7.7-7.43-15.1-14.61-32.92-19.36-52.89-13.46s-32.43,19.87-36.87,40.22c-6.36,29.09,15.21,58.79,44.75,62.42,2.52.3,5.92-.31,7.18,2.37.88,1.86.66,4.68,0,6.72-.78,2.24-3.34,1.22-5.13,1.13-29.6-1.57-54.43-26.49-57.52-56.67-3.57-35,24.09-69.25,64.19-68.47A61.2,61.2,0,0,1,151,194.08c2,2.24,4.22,4.5,4.66,7.75l-6.32,4.57" transform="translate(185.06 78.37)"/><path class="cls-27" d="M121.77,235.66c.62-1.34,1.12-2.57,1.74-3.72,1.39-2.55.95-3.94-2.22-4-1.79,0-4.19.54-4.15-2.49,0-3.44,2.75-2.39,4.65-2.57,1.14-.11,2.3,0,3.45,0,8.15,0,8.33.1,4.7,6.95-1.48,2.8.2,3.44,1.72,4.94a7.8,7.8,0,0,1,1.85,9,8.87,8.87,0,0,1-8.35,6c-3.32.07-6.43-1.13-8.1-4.45-.58-1.14-1.69-2.44-.27-3.57a2.84,2.84,0,0,1,3.72.15c1.91,1.8,3.7,3.54,6.44,1.7a3.44,3.44,0,0,0,1.62-3.45c-.59-3.79-4.13-3.29-6.8-4.4" transform="translate(185.06 78.37)"/><path class="cls-27" d="M112.89,242a39.86,39.86,0,0,0-3.39,6.61c-.77,1.65-4,1.56-4.16-.21-.69-6-5-4.05-8.17-4.09-4.19,0-5.36-1.32-3-5.07q4.26-6.81,8.38-13.71c1.37-2.3,3.32-3.2,5.82-2.45s1.76,3,1.86,4.86c.27,4.81-1.16,9.88,2.68,14.06m-8.16-9.87c-1.84,2.24-4.65,3.84-4.21,7.18a4.47,4.47,0,0,0,3.11.31c3.6-1.63,1.34-4.73,1.1-7.49" transform="translate(185.06 78.37)"/><path class="cls-27" d="M90.71,225.8c-1.2,2.75-2.66,6.06-4.08,9.38-1.57,3.68-3.13,7.36-4.65,11.06-1,2.38-2.67,4.24-5.19,3.1s-.57-3.34,0-4.91c1.49-3.91,3.06-7.81,4.91-11.56,1.92-3.9.69-5.22-3.34-4.89A18.73,18.73,0,0,1,75,227.9a2.22,2.22,0,0,1-2.11-2.27c-.1-1.61.72-2.65,2.28-2.67,4.57-.09,9.14-.05,13.71,0,1.33,0,2.11.74,1.87,2.83" transform="translate(185.06 78.37)"/><path class="cls-27" d="M101.48,266.47c.61-2.74-1.62-7,4.09-6.91,5.19.07,6.81,2,6.89,9.74.05,4.21-3,4.55-6.32,4.73-6.46.34-4.07-4.43-4.66-7.56m5.73,5.37c1.38-.16,2.77-.49,2.69-2.21s-1.45-2.05-2.83-2.13-2.6.5-2.56,2.23,1.23,2.12,2.7,2.11" transform="translate(185.06 78.37)"/><path class="cls-28" d="M158.74,247.7a14.08,14.08,0,0,1-1.72,0c-1.78-.22-4.05.91-5-1.5a3.07,3.07,0,0,1,.41-2.65,4,4,0,0,1,5.23-.8c2.17,1.65,5.35-2.51,6.7,1.47.68,2,2.43-2.12,2.57.39a3,3,0,0,1-3,3c-1.72.14-3.45,0-5.17,0Z" transform="translate(185.06 78.37)"/><rect class="cls-25" x="215.78" y="200.27" width="145.64" height="26.91"/><text class="cls-29" transform="translate(244.59 207.17)">Credit Moni<tspan class="cls-30" x="47.7" y="0">t</tspan><tspan class="cls-31" x="51.18" y="0">oring</tspan></text></g></g></svg>